<svg xmlns="http://www.w3.org/2000/svg" xmlns:xlink="http://www.w3.org/1999/xlink" width="97.02" height="26.238" viewBox="0 0 97.02 26.238">
  <defs>
    <clipPath id="clip-path">
      <rect id="사각형_1000" data-name="사각형 1000" width="97.02" height="26.238" fill="none"/>
    </clipPath>
    <clipPath id="clip-path-2">
      <rect id="사각형_989" data-name="사각형 989" width="6.017" height="7.634" fill="none"/>
    </clipPath>
    <clipPath id="clip-path-3">
      <rect id="사각형_990" data-name="사각형 990" width="1.443" height="11.342" fill="none"/>
    </clipPath>
    <clipPath id="clip-path-4">
      <rect id="사각형_991" data-name="사각형 991" width="3.057" height="11.342" fill="none"/>
    </clipPath>
    <clipPath id="clip-path-5">
      <rect id="사각형_992" data-name="사각형 992" width="4.16" height="11.31" fill="none"/>
    </clipPath>
    <clipPath id="clip-path-6">
      <rect id="사각형_993" data-name="사각형 993" width="9.232" height="4.307" fill="none"/>
    </clipPath>
    <clipPath id="clip-path-7">
      <rect id="사각형_994" data-name="사각형 994" width="7.886" height="4.191" fill="none"/>
    </clipPath>
    <clipPath id="clip-path-8">
      <rect id="사각형_995" data-name="사각형 995" width="3.265" height="6.514" fill="none"/>
    </clipPath>
    <clipPath id="clip-path-9">
      <rect id="사각형_996" data-name="사각형 996" width="5.032" height="6.827" fill="none"/>
    </clipPath>
    <clipPath id="clip-path-10">
      <rect id="사각형_997" data-name="사각형 997" width="11.501" height="2.701" fill="none"/>
    </clipPath>
    <clipPath id="clip-path-11">
      <rect id="사각형_998" data-name="사각형 998" width="8.144" height="6.196" fill="none"/>
    </clipPath>
    <clipPath id="clip-path-12">
      <rect id="사각형_999" data-name="사각형 999" width="11.305" height="4.746" fill="none"/>
    </clipPath>
  </defs>
  <g id="세종대학교산학협력단로고" transform="translate(0 0)">
    <g id="그룹_644" data-name="그룹 644" transform="translate(0 -0.001)" clip-path="url(#clip-path)">
      <g id="그룹_613" data-name="그룹 613" transform="translate(32.123 1.744)" style="mix-blend-mode: normal;isolation: isolate">
        <g id="그룹_612" data-name="그룹 612">
          <g id="그룹_611" data-name="그룹 611" clip-path="url(#clip-path-2)">
            <path id="패스_602" data-name="패스 602" d="M43.957,2.271a5.369,5.369,0,0,1-.716-.048V4.061a10.113,10.113,0,0,1-.119,1.546,5.171,5.171,0,0,1-.332,1.165,4.82,4.82,0,0,1-.715,1.112,8.13,8.13,0,0,1-.91.867l-.217.184a5.736,5.736,0,0,1,1.019.922,10.005,10.005,0,0,0,1.3-1.294l.467-.613a1.061,1.061,0,0,0,.166-.317l.058-.167.049.144a1.829,1.829,0,0,0,.213.34l.471.615a9.507,9.507,0,0,0,1.3,1.293,5.517,5.517,0,0,1,.977-.92l-.217-.187a7.791,7.791,0,0,1-.91-.865,4.889,4.889,0,0,1-.719-1.112,5.284,5.284,0,0,1-.329-1.165,9.883,9.883,0,0,1-.122-1.546V2.223a5.314,5.314,0,0,1-.712.048" transform="translate(-40.948 -2.223)" fill="#375165"/>
          </g>
        </g>
      </g>
      <g id="그룹_616" data-name="그룹 616" transform="translate(41.373 1.53)" style="mix-blend-mode: normal;isolation: isolate">
        <g id="그룹_615" data-name="그룹 615">
          <g id="그룹_614" data-name="그룹 614" clip-path="url(#clip-path-3)">
            <path id="패스_603" data-name="패스 603" d="M53.46,13.266s.568.009.723.027c-.038-1.769-.059-3.633-.059-5.391,0-1.614.016-4.075.059-5.951-.155.016-.723.026-.723.026s-.562-.009-.72-.026C52.78,3.8,52.8,6.266,52.8,7.9c0,1.779-.019,3.643-.059,5.391.158-.018.72-.027.72-.027" transform="translate(-52.74 -1.951)" fill="#375165"/>
          </g>
        </g>
      </g>
      <g id="그룹_619" data-name="그룹 619" transform="translate(37.234 1.53)" style="mix-blend-mode: normal;isolation: isolate">
        <g id="그룹_618" data-name="그룹 618">
          <g id="그룹_617" data-name="그룹 617" clip-path="url(#clip-path-4)">
            <path id="패스_604" data-name="패스 604" d="M49.8,13.266s.566.01.722.027c-.038-1.6-.06-3.688-.06-5.465,0-1.636.022-4.171.06-5.877-.155.016-.722.026-.722.026s-.561-.009-.718-.026c0,.071.046,2.709.046,2.709s-1.592-.024-1.663-.027a4.572,4.572,0,0,1,.045.61,4.592,4.592,0,0,1-.045.613c.07,0,1.359-.022,1.359-.022l.314-.005.005,2c0,1.777-.024,3.864-.062,5.465.157-.016.718-.027.718-.027" transform="translate(-47.463 -1.951)" fill="#375165"/>
          </g>
        </g>
      </g>
      <g id="그룹_622" data-name="그룹 622" transform="translate(65.831 1.53)" style="mix-blend-mode: normal;isolation: isolate">
        <g id="그룹_621" data-name="그룹 621">
          <g id="그룹_620" data-name="그룹 620" clip-path="url(#clip-path-5)">
            <path id="패스_605" data-name="패스 605" d="M87.332,13.235s.586.008.746.024c-.039-1.861-.058-3.439-.058-5.1,0-1.739.02-4.421.058-6.206-.16.018-.746.026-.746.026s-.566-.008-.723-.026c0,.072.05,3.667.05,3.667l-.131,0-.57.013-.65-.014s.048-3.6.051-3.669c-.158.016-.718.026-.718.026s-.567-.009-.724-.026c.04,1.658.06,4.388.06,6.133,0,1.7-.02,3.532-.06,5.177.158-.014.724-.024.724-.024s.559.01.718.024c-.04-1.687-.06-3.523-.06-5.177l0-1.284.657-.013.711.013V8.156c0,1.653-.02,3.229-.062,5.1.158-.016.723-.024.723-.024" transform="translate(-83.918 -1.95)" fill="#375165"/>
          </g>
        </g>
      </g>
      <g id="그룹_625" data-name="그룹 625" transform="translate(47.191 1.624)" style="mix-blend-mode: normal;isolation: isolate">
        <g id="그룹_624" data-name="그룹 624">
          <g id="그룹_623" data-name="그룹 623" clip-path="url(#clip-path-6)">
            <path id="패스_606" data-name="패스 606" d="M65.638,3.324l-.006-.042.04,0c1.142.012,2.729.04,3.684.075a5.3,5.3,0,0,1-.045-.642,5.324,5.324,0,0,1,.045-.647c-1.364.056-3.286.086-4.584.086s-3.222-.03-4.585-.086a4.369,4.369,0,0,1,0,1.29c.957-.035,2.541-.063,3.688-.075l.04,0,0,.042c-.613,1.125-3.383,1.767-3.755,1.843.026.069.449,1.159.47,1.209a11.6,11.6,0,0,0,4.146-1.95,11.616,11.616,0,0,0,4.145,1.95l.471-1.209c-.372-.076-3.143-.718-3.75-1.843" transform="translate(-60.156 -2.069)" fill="#375165"/>
          </g>
        </g>
      </g>
      <g id="그룹_628" data-name="그룹 628" transform="translate(74.627 8.652)" style="mix-blend-mode: normal;isolation: isolate">
        <g id="그룹_627" data-name="그룹 627">
          <g id="그룹_626" data-name="그룹 626" clip-path="url(#clip-path-7)">
            <path id="패스_607" data-name="패스 607" d="M103.015,15.22c-.04-.738-.063-1.993-.063-2.8,0-.5.013-.638.029-.883,0,0,.029-.444.032-.508-1.225.031-2.861.048-3.939.048s-2.72-.014-3.946-.048a5.71,5.71,0,0,1,0,1.21c1.22-.036,2.857-.049,3.946-.049l2.492.015h.034l0,.043c.007,0,.011.016.013.038h0v.007c0,.024,0,.06,0,.126,0,.8-.025,2.058-.064,2.8.072,0,.693-.023.693-.023s.7.019.769.023" transform="translate(-95.129 -11.029)" fill="#375165"/>
          </g>
        </g>
      </g>
      <g id="그룹_631" data-name="그룹 631" transform="translate(81.028 1.575)" style="mix-blend-mode: normal;isolation: isolate">
        <g id="그룹_630" data-name="그룹 630">
          <g id="그룹_629" data-name="그룹 629" clip-path="url(#clip-path-8)">
            <path id="패스_608" data-name="패스 608" d="M104.763,8.521c-.029-.872-.05-1.734-.057-2.63l0-.036,1.851.031a4.652,4.652,0,0,1-.046-.638,4.527,4.527,0,0,1,.046-.634c-.074,0-1.852.027-1.852.027V4.606c0-.947.022-1.437.048-2.252,0,0,.009-.286.009-.347-.257.023-.506.035-.748.035s-.45-.011-.722-.035c.043,1.308.061,2.294.061,3.388,0,1.214-.024,1.985-.061,3.125.253-.022.476-.035.722-.035s.508.015.752.035" transform="translate(-103.29 -2.007)" fill="#375165"/>
          </g>
        </g>
      </g>
      <g id="그룹_634" data-name="그룹 634" transform="translate(60.121 1.882)" style="mix-blend-mode: normal;isolation: isolate">
        <g id="그룹_633" data-name="그룹 633">
          <g id="그룹_632" data-name="그룹 632" clip-path="url(#clip-path-9)">
            <path id="패스_609" data-name="패스 609" d="M81.671,9.215c-.025-.264-.042-.519-.042-.751a4.5,4.5,0,0,1,.03-.522H78.65l-.458-.012h-.03l-.025-2.02.025-2.247h2.972c-.014-.181-.024-.353-.024-.52a5.815,5.815,0,0,1,.052-.741c-.706.021-1.454.035-2.172.035-.8,0-1.607-.016-2.35-.038.038,1.086.062,2.368.062,3.511,0,1.122-.039,2.921-.06,3.315,1.7-.043,3.161-.044,5.029-.01" transform="translate(-76.639 -2.399)" fill="#375165"/>
          </g>
        </g>
      </g>
      <path id="패스_610" data-name="패스 610" d="M99.048,4.63a2.671,2.671,0,0,0-.527-.775l-.059-.062,1.483.053a5.1,5.1,0,0,1-.042-.622,5.559,5.559,0,0,1,.038-.624c-.9.038-1.9.067-2.887.075h-.037l.009-.3s.019-1.082.02-1.155a5.579,5.579,0,0,1-.763.053,5.665,5.665,0,0,1-.766-.053c0,.075.033,1.453.033,1.453h-.038c-1.023-.007-2.053-.036-2.981-.078a5.056,5.056,0,0,1,.041.627,4.842,4.842,0,0,1-.046.623l1.543-.056-.06.062a2.962,2.962,0,0,0-.533.778,2.279,2.279,0,0,0-.212.965v.077l0,.027a2.652,2.652,0,0,0,.864,1.87,3.181,3.181,0,0,0,4.268,0l.071-.072a.024.024,0,0,1,.02,0,2.361,2.361,0,0,0,.337-.426,2.777,2.777,0,0,0,.22-.4,2.2,2.2,0,0,0,.225-.968l0-.053,0-.05a2.191,2.191,0,0,0-.225-.965M97.3,6.786a1.307,1.307,0,0,1-1.033.5,1.366,1.366,0,0,1-1.05-.49,1.73,1.73,0,0,1-.437-1.2A1.77,1.77,0,0,1,95.2,4.411a1.311,1.311,0,0,1,1.025-.5,1.365,1.365,0,0,1,1.049.488,1.711,1.711,0,0,1,.44,1.187,1.789,1.789,0,0,1-.417,1.2" transform="translate(-19.942 -0.263)" fill="#375165"/>
      <path id="패스_611" data-name="패스 611" d="M68.3,13.073a2.5,2.5,0,0,0-.907-1.927,3.443,3.443,0,0,0-4.424,0,2.482,2.482,0,0,0,0,3.846,3.44,3.44,0,0,0,4.424,0,2.49,2.49,0,0,0,.907-1.919m-2.008,1.216h0a1.565,1.565,0,0,1-1.153.5,1.493,1.493,0,0,1-1.133-.508,1.8,1.8,0,0,1,.016-2.426,1.552,1.552,0,0,1,1.157-.5,1.486,1.486,0,0,1,1.134.5,1.773,1.773,0,0,1,.46,1.222,1.7,1.7,0,0,1-.482,1.21" transform="translate(-13.375 -2.228)" fill="#375165"/>
      <g id="그룹_637" data-name="그룹 637" transform="translate(46.058 5.133)" style="mix-blend-mode: normal;isolation: isolate">
        <g id="그룹_636" data-name="그룹 636">
          <g id="그룹_635" data-name="그룹 635" clip-path="url(#clip-path-10)">
            <path id="패스_612" data-name="패스 612" d="M70.212,9.244a3.827,3.827,0,0,1,0-1.328c-1.528.028-3.229.045-5.053.049h-.035l.01-.453s.015-.9.019-.97a5.05,5.05,0,0,1-.693.046,5,5,0,0,1-.692-.046c0,.075.023,1.28.023,1.28l0,.143h-.034c-1.825,0-3.521-.021-5.047-.049a4.043,4.043,0,0,1,0,1.328c1.962-.036,3.9-.053,5.747-.053s3.793.017,5.753.053" transform="translate(-58.712 -6.543)" fill="#375165"/>
          </g>
        </g>
      </g>
      <g id="그룹_640" data-name="그룹 640" transform="translate(87.21 2.015)" style="mix-blend-mode: normal;isolation: isolate">
        <g id="그룹_639" data-name="그룹 639">
          <g id="그룹_638" data-name="그룹 638" clip-path="url(#clip-path-11)">
            <path id="패스_613" data-name="패스 613" d="M119.314,8.76c-.042-.788-.067-2.192-.067-3.059,0-.757.02-2.262.067-3.132-1.221.032-2.594.051-3.9.051-1.185,0-2.921-.016-4.24-.051.022.227.034.446.034.661s-.012.431-.034.657c1.318-.034,3.055-.05,4.24-.05l2.35.016v.034c.013.506.02.806.02.983,0,.078,0,.128,0,.166V5.1h0c0,.9-.02,2.856-.064,3.663.064-.005.868-.028.868-.028s.667.023.737.024" transform="translate(-111.17 -2.568)" fill="#375165"/>
          </g>
        </g>
      </g>
      <g id="그룹_643" data-name="그룹 643" transform="translate(85.715 6.305)" style="mix-blend-mode: normal;isolation: isolate">
        <g id="그룹_642" data-name="그룹 642">
          <g id="그룹_641" data-name="그룹 641" clip-path="url(#clip-path-12)">
            <path id="패스_614" data-name="패스 614" d="M120.569,12.783a4.885,4.885,0,0,1-.056-.7,4.8,4.8,0,0,1,.056-.694c-1.475.026-2.9.043-4.377.052h-.035l.01-1.019s.034-2.312.034-2.386a6.2,6.2,0,0,1-.732.045,6.233,6.233,0,0,1-.733-.045c0,.074.035,2.488.035,2.488l.01.917-1.35,0,.009-.946s.035-2.382.036-2.455a5.916,5.916,0,0,1-1.465,0c0,.074.034,2.535.034,2.535l.011.857s-2.718-.04-2.792-.04a4.589,4.589,0,0,1,.056.694,4.683,4.683,0,0,1-.056.7c1.908-.035,3.719-.054,5.628-.054s3.769.02,5.677.054" transform="translate(-109.264 -8.037)" fill="#375165"/>
          </g>
        </g>
      </g>
      <path id="패스_615" data-name="패스 615" d="M13.118,26.237A13.118,13.118,0,1,0,0,13.119,13.134,13.134,0,0,0,13.118,26.237M.551,13.119A12.568,12.568,0,1,1,13.118,25.685,12.581,12.581,0,0,1,.551,13.119" transform="translate(0 0)" fill="#c10230"/>
      <path id="패스_616" data-name="패스 616" d="M23.3,12.908A9.1,9.1,0,0,0,5.273,12.9l.493.07a8.605,8.605,0,0,1,17.039.013Z" transform="translate(-1.136 -1.095)" fill="#c10230"/>
      <path id="패스_617" data-name="패스 617" d="M13.668,23.978v-.1l.237-.026.054-.02.026-.066A4.215,4.215,0,0,0,14,23.33v-.3c0-.1,0-.216,0-.333l0-.106-.008-.051-.02-.012-.051.021c-.162.071-.264.116-.309.143l-.014-.011-.013-.078-.014-.078V22.52c.151-.04.268-.079.353-.107s.224-.078.41-.147l.028.017c0,.014,0,.052-.008.118s-.008.106-.008.126c0,.069,0,.253-.012.549v.186c0,.177,0,.305.01.373a.644.644,0,0,0,.016.187l.024.024a.534.534,0,0,0,.174.024l.081.005v.1c-.181-.006-.326-.009-.439-.009-.075,0-.253,0-.526.009" transform="translate(-2.923 -4.798)" fill="#c10230"/>
      <path id="패스_618" data-name="패스 618" d="M15.986,23.043l-.079.089-.114.031-.122-.042L15.578,23a.589.589,0,0,1-.035-.222.435.435,0,0,1,.061-.263.2.2,0,0,1,.158-.079.194.194,0,0,1,.183.116.7.7,0,0,1,.063.324.439.439,0,0,1-.023.164m-.223.915a.871.871,0,0,0,.286-.2.856.856,0,0,0,.206-.309,1.125,1.125,0,0,0,.079-.445,1.039,1.039,0,0,0-.057-.373.542.542,0,0,0-.18-.241.481.481,0,0,0-.306-.089.509.509,0,0,0-.395.163.616.616,0,0,0-.158.442.518.518,0,0,0,.111.355.354.354,0,0,0,.271.122l.177-.029.043-.027c.028-.024.08-.072.162-.143a1.709,1.709,0,0,1-.046.284.919.919,0,0,1-.1.222.516.516,0,0,1-.177.158.456.456,0,0,1-.228.063l-.09-.017-.03.049.1.076a.834.834,0,0,0,.339-.066" transform="translate(-3.284 -4.807)" fill="#c10230"/>
      <path id="패스_619" data-name="패스 619" d="M17.245,22.913c.051-.089.134-.228.251-.416l-.007.23,0,.16,0,.45h-.449c.092-.193.161-.333.213-.424m.364,1.056.318.007.1,0v-.1l-.16-.016-.05-.02-.02-.04a2.2,2.2,0,0,1-.009-.25h.233l-.009-.092.009-.112-.009-.014-.178.008h-.046V23.06c0-.264,0-.432.009-.508,0-.115.007-.2.012-.26l-.022-.021a1.136,1.136,0,0,0-.162.031l-.147.028c-.033.045-.09.129-.172.258s-.177.3-.293.524a3.128,3.128,0,0,0-.158.337l.017.105c.148,0,.3-.005.446-.005h.166c-.007.128-.007.2-.009.215l-.022.075-.039.018a2.185,2.185,0,0,1-.231.019v.1Z" transform="translate(-3.632 -4.8)" fill="#c10230"/>
      <path id="패스_620" data-name="패스 620" d="M18.981,22.616a.272.272,0,0,1,.079-.137l.115-.038.1.032.075.1a.727.727,0,0,1,.048.209,4.024,4.024,0,0,1,.035.515,1.2,1.2,0,0,1-.066.5.2.2,0,0,1-.166.1l-.144-.07a.641.641,0,0,1-.092-.3,4.687,4.687,0,0,1-.027-.5,1.59,1.59,0,0,1,.039-.409m-.321.934a.67.67,0,0,0,.095.261.447.447,0,0,0,.169.164.573.573,0,0,0,.247.049.5.5,0,0,0,.2-.035l.152-.093a.591.591,0,0,0,.12-.175.792.792,0,0,0,.075-.263,2.957,2.957,0,0,0,.021-.36,1.637,1.637,0,0,0-.051-.452.515.515,0,0,0-.166-.256.527.527,0,0,0-.32-.086.606.606,0,0,0-.191.029l-.156.1a.529.529,0,0,0-.119.156.629.629,0,0,0-.073.217,2.265,2.265,0,0,0-.031.391,2.986,2.986,0,0,0,.023.355" transform="translate(-4.017 -4.807)" fill="#c10230"/>
      <path id="패스_621" data-name="패스 621" d="M12.147,2.383l.042.03.036.082c.031.106.06.217.091.348l.082.35.06.264a2.594,2.594,0,0,0,.071.268l.089.155A.6.6,0,0,0,12.784,4a.625.625,0,0,0,.242.062,1.417,1.417,0,0,0,.712-.147.8.8,0,0,0,.209-.168.715.715,0,0,0,.112-.206.626.626,0,0,0,.02-.244,1.465,1.465,0,0,0-.043-.261l-.071-.326c-.026-.093-.052-.224-.083-.391a2.005,2.005,0,0,1-.046-.284l.017-.049a.373.373,0,0,1,.157-.057l-.026-.114-.3.079-.038.013c-.031,0-.131.024-.3.056l.025.115a.489.489,0,0,1,.206-.018l.038.025a.835.835,0,0,1,.07.2c.013.054.046.2.106.445l.063.282a1.079,1.079,0,0,1,.046.409.4.4,0,0,1-.123.209.652.652,0,0,1-.289.136.679.679,0,0,1-.288.013.327.327,0,0,1-.187-.092.442.442,0,0,1-.116-.193c-.013-.038-.038-.142-.077-.308l-.04-.16L12.7,2.71a2.361,2.361,0,0,1-.066-.38l.013-.056a.466.466,0,0,1,.185-.07l-.027-.116-.051.014-.184.046-.186.049-.45.094.029.115Z" transform="translate(-2.573 -0.391)" fill="#c10230"/>
      <path id="패스_622" data-name="패스 622" d="M15.856,3.671V3.557l-.028,0L15.7,3.547l-.049-.018-.019-.023a1.239,1.239,0,0,1-.017-.2C15.606,3.154,15.6,3,15.6,2.855v-.7c.554.673.98,1.179,1.283,1.519.079.008.16.02.239.034l.018-.013c-.013-.131-.018-.508-.018-1.129,0-.082,0-.2,0-.368a1.846,1.846,0,0,1,.027-.322l.016-.019a.624.624,0,0,1,.2-.027V1.718c-.147.006-.266.008-.358.008s-.2,0-.314-.008v.118a.567.567,0,0,1,.218.029l.027.067c.007.089.014.384.014.886v.323c-.129-.131-.292-.32-.488-.558-.275-.323-.506-.61-.7-.865l-.127.006-.2,0c-.057,0-.144,0-.263-.008v.118l.178.017.045.025.021.044a.934.934,0,0,1,.006.136l.008.406v.45c0,.123,0,.224-.008.3a2.366,2.366,0,0,1-.018.257l-.019.052-.024.016a1.5,1.5,0,0,1-.19.016v.122c.157-.008.278-.011.369-.011.022,0,.126,0,.3,0" transform="translate(-3.273 -0.37)" fill="#c10230"/>
      <path id="패스_623" data-name="패스 623" d="M5.015,7.048l.047-.019.049.014.1.081.31.266.338.3c.1.081.167.147.224.2.1.1.158.161.18.184L6.3,8.12l0,.033a1.239,1.239,0,0,1-.113.15l.089.082L6.506,8.1c.014-.014.082-.089.2-.224L6.623,7.8l-.02.021-.094.093-.042.026-.034,0a1.054,1.054,0,0,1-.159-.116c-.119-.1-.236-.2-.344-.292l-.523-.463q1.3.047,1.984.039c.064-.053.123-.105.185-.155l0-.024c-.107-.078-.394-.319-.859-.73-.06-.052-.153-.136-.273-.249a1.443,1.443,0,0,1-.222-.231l-.006-.025a.561.561,0,0,1,.115-.169l-.089-.078c-.093.114-.166.206-.228.275s-.133.149-.213.229l.087.077c.085-.091.139-.141.166-.145l.065.025c.075.05.3.242.679.572l.242.214c-.185.009-.433.011-.739,0-.426-.008-.8-.026-1.112-.047l-.082.1L4.976,6.9c-.036.042-.1.105-.181.189l.091.079a1.358,1.358,0,0,1,.129-.122" transform="translate(-1.033 -1.173)" fill="#c10230"/>
      <path id="패스_624" data-name="패스 624" d="M19.068,3.912l.016-.118a.982.982,0,0,1-.158-.036l-.037-.017-.016-.031a1.157,1.157,0,0,1,.016-.223l.033-.247L19,2.7c0-.014.023-.136.06-.358.01-.064.018-.107.023-.131l.029-.083.014-.017.038-.013a1.1,1.1,0,0,1,.162.014L19.35,2c-.149-.02-.3-.038-.468-.062-.144-.024-.274-.044-.385-.067l-.019.118a1.664,1.664,0,0,1,.169.037l.03.02.007.029a1.857,1.857,0,0,1-.015.213c-.005.054-.022.169-.05.346l-.082.562c-.013.091-.031.191-.056.295-.016.073-.024.154-.03.164l-.013.019-.044.009c-.015,0-.069,0-.161-.015l-.019.118c.114.012.243.029.388.051.164.025.32.049.466.078" transform="translate(-3.926 -0.402)" fill="#c10230"/>
      <path id="패스_625" data-name="패스 625" d="M28.572,8.86c-.04.029-.14.09-.293.184l-.482.3c-.08.049-.167.1-.263.149-.064.036-.133.079-.143.086l-.024,0-.034-.028c-.01-.012-.043-.055-.1-.132l-.1.06c.066.095.138.2.214.326.087.146.168.28.244.409l.1-.066a1.49,1.49,0,0,1-.078-.14l-.007-.043.015-.032A1.209,1.209,0,0,1,27.8,9.8l.209-.133.466-.289c.015-.008.116-.07.308-.184l.113-.067.085-.036.027,0,.032.02c.012.013.042.058.095.136l.1-.066c-.082-.121-.168-.255-.255-.394s-.143-.237-.2-.34l-.1.065a1.572,1.572,0,0,1,.08.153l0,.035-.013.026c-.022.019-.082.06-.177.126" transform="translate(-5.848 -1.822)" fill="#c10230"/>
      <path id="패스_626" data-name="패스 626" d="M20.369,2.479c.01.078.029.315.06.705l.04.5c.015.185.029.384.041.588l.2.067c.1-.133.286-.355.552-.661l.314-.359.162-.186a1.426,1.426,0,0,1,.247-.248.413.413,0,0,1,.153.024l.038-.114-.282-.086L21.567,2.6l-.038.113.14.056.045.02.013.024,0,.035-.013.033a2.21,2.21,0,0,1-.139.184c-.106.129-.159.2-.174.218l-.526.616-.064-.908V2.962c0-.009,0-.06-.008-.149a1,1,0,0,1,0-.275l.02-.03.045-.005a.79.79,0,0,1,.162.04l.038-.111-.47-.148c-.045-.013-.17-.058-.377-.132l-.035.111a.37.37,0,0,1,.15.078.311.311,0,0,1,.041.137" transform="translate(-4.349 -0.463)" fill="#c10230"/>
      <path id="패스_627" data-name="패스 627" d="M22.9,3.882l-.308.535c-.036.06-.095.158-.18.289-.045.071-.082.123-.1.153l-.156,0-.038.062c.249.136.381.213.4.224.071.039.2.115.384.227l.19.118a1.865,1.865,0,0,0,.221.111l.023,0a3.874,3.874,0,0,1,.25-.37l-.1-.059a1.824,1.824,0,0,1-.172.193l-.029.009a.411.411,0,0,1-.145-.052c-.075-.038-.154-.081-.242-.129s-.158-.1-.22-.137l.079-.147.289-.505.2.105a2.172,2.172,0,0,1,.2.134l.035.059a.464.464,0,0,1-.082.181l.1.06.149-.266L23.8,4.42l-.1-.053a.69.69,0,0,1-.1.14l-.029.013-.081-.034c-.116-.061-.18-.1-.2-.111l-.162-.1.142-.246a2.415,2.415,0,0,1,.214-.329c.073.037.151.073.22.117a1.7,1.7,0,0,1,.219.145l.086.074v.031c-.009.026-.038.083-.089.18l.093.053c.066-.1.1-.152.111-.162l.121-.158V3.958l-.038-.03c-.082-.054-.137-.088-.166-.1L23.8,3.689c-.137-.075-.256-.142-.364-.206L23.274,3.4,23,3.225l-.06.1a.754.754,0,0,1,.159.118l.009.031a.779.779,0,0,1-.078.171c-.075.134-.118.213-.132.232" transform="translate(-4.766 -0.695)" fill="#c10230"/>
      <path id="패스_628" data-name="패스 628" d="M2,13.953l.025-.016a.67.67,0,0,1,.189.024l.259.053.6.14c.071.015.18.048.33.09a1.783,1.783,0,0,1,.18.054l.044.15.074.016c.059-.275.092-.428.1-.45.016-.077.053-.224.1-.435l.055-.213A2.385,2.385,0,0,0,4,13.123L3.985,13.1a4.231,4.231,0,0,1-.428-.13l-.026.111a1.567,1.567,0,0,1,.234.105l.017.02a.444.444,0,0,1-.006.161c-.014.083-.033.17-.053.267s-.046.183-.067.255c-.047-.011-.1-.019-.165-.035l-.564-.13c.007-.057.021-.13.041-.216a1.615,1.615,0,0,1,.07-.233l.044-.049a.537.537,0,0,1,.2.025l.027-.116-.293-.062L2.723,13l-.027.11a.58.58,0,0,1,.166.06l.023.024-.009.087c-.027.126-.043.2-.045.222-.018.067-.035.129-.055.185L2.5,13.626a3.808,3.808,0,0,1-.381-.107c.016-.084.03-.166.05-.243a1.87,1.87,0,0,1,.075-.257l.047-.1.027-.013a1.632,1.632,0,0,1,.2.033l.025-.1c-.113-.034-.177-.056-.188-.059l-.184-.068-.021,0-.018.041c-.028.1-.042.162-.051.2l-.057.271c-.032.151-.06.285-.09.407l-.04.175-.082.308.115.025A.887.887,0,0,1,2,13.953" transform="translate(-0.39 -2.739)" fill="#c10230"/>
      <path id="패스_629" data-name="패스 629" d="M24.92,5.221l-.327.392-.261.3-.114.109-.032.024-.027,0A1.034,1.034,0,0,1,24,5.941l-.075.092c.1.073.2.156.309.245s.243.206.362.308l.076-.092a1.384,1.384,0,0,1-.118-.108l-.024-.036V6.324l.053-.086.2-.256c.1-.118.186-.231.274-.337.056-.066.169-.2.334-.392.077-.088.126-.14.147-.169l.107.078a.5.5,0,0,1,.147.147.317.317,0,0,1,.042.184.341.341,0,0,1-.087.2.447.447,0,0,1-.187.136.28.28,0,0,1-.2.02.481.481,0,0,1-.212-.132l-.042.026.009.124c-.005.1-.02.229-.042.388l-.082.558-.025.083.171.133c.052.04.126.107.235.2l.071-.089-.062-.061-.011-.053c0-.024,0-.09.006-.206,0-.007,0-.062.015-.163l.043-.38,0-.031.009-.093L25.47,6a.677.677,0,0,0,.378.035.479.479,0,0,0,.271-.166.38.38,0,0,0,.093-.231.336.336,0,0,0-.056-.212,1.265,1.265,0,0,0-.231-.231c-.057-.048-.131-.1-.22-.172-.057-.042-.122-.094-.2-.155s-.153-.126-.2-.168c-.094-.082-.148-.13-.165-.143l-.071.086a1.026,1.026,0,0,1,.137.151v.031a.9.9,0,0,1-.117.168Z" transform="translate(-5.158 -0.982)" fill="#c10230"/>
      <path id="패스_630" data-name="패스 630" d="M26.317,8.249a.6.6,0,0,1-.115-.26.43.43,0,0,1,.009-.236A1.961,1.961,0,0,1,26.4,7.59L26.325,7.5a1.789,1.789,0,0,1-.4.256,1.266,1.266,0,0,0,.089.3,1.361,1.361,0,0,0,.161.26,1.012,1.012,0,0,0,.293.275.659.659,0,0,0,.223.083.675.675,0,0,0,.238.014.667.667,0,0,0,.291-.134l.13-.132.065-.135.006-.146a.775.775,0,0,0-.052-.183c-.015-.029-.045-.083-.089-.172s-.078-.153-.1-.2a.714.714,0,0,1-.049-.166l.022-.12.1-.116a.306.306,0,0,1,.24-.053.447.447,0,0,1,.255.177.725.725,0,0,1,.1.215.337.337,0,0,1,0,.18,1.507,1.507,0,0,1-.173.153l.071.089c.078-.056.14-.1.191-.13l.158-.082.018-.03a.9.9,0,0,0-.086-.233,1.457,1.457,0,0,0-.152-.241,1.188,1.188,0,0,0-.192-.2.665.665,0,0,0-.227-.122.443.443,0,0,0-.264-.013.579.579,0,0,0-.266.122l-.144.151a.476.476,0,0,0-.064.187.491.491,0,0,0,.035.213c.019.05.066.155.137.311a1.184,1.184,0,0,1,.092.238l-.02.14-.1.115-.176.082A.344.344,0,0,1,26.5,8.4a.618.618,0,0,1-.18-.155" transform="translate(-5.587 -1.481)" fill="#c10230"/>
      <path id="패스_631" data-name="패스 631" d="M2.465,16.547a.453.453,0,0,0,.164-.1.48.48,0,0,0,.11-.192c.017-.053.043-.162.081-.327a1.089,1.089,0,0,1,.086-.239l.1-.1.148-.031a.389.389,0,0,1,.184.052.318.318,0,0,1,.123.154A.526.526,0,0,1,3.506,16a.589.589,0,0,1-.072.275.434.434,0,0,1-.155.179,2.049,2.049,0,0,1-.249.007l0,.116a1.932,1.932,0,0,1,.479.056,1.372,1.372,0,0,0,.117-.289,1.285,1.285,0,0,0,.037-.3,1.056,1.056,0,0,0-.053-.4.792.792,0,0,0-.121-.2.748.748,0,0,0-.18-.16A.726.726,0,0,0,3,15.2a.531.531,0,0,0-.182.024l-.135.062-.1.107a.686.686,0,0,0-.075.179c-.009.03-.021.093-.041.187s-.032.168-.043.22a.836.836,0,0,1-.068.16l-.089.077-.151.028a.291.291,0,0,1-.219-.107.415.415,0,0,1-.087-.292.576.576,0,0,1,.053-.235.332.332,0,0,1,.111-.147A2,2,0,0,1,2.2,15.45l.006-.117a2.052,2.052,0,0,1-.229-.02L1.8,15.281l-.032.011a.925.925,0,0,0-.083.238,1.423,1.423,0,0,0-.03.282,1.165,1.165,0,0,0,.021.276.689.689,0,0,0,.1.242.541.541,0,0,0,.2.175.611.611,0,0,0,.282.073.662.662,0,0,0,.21-.031" transform="translate(-0.356 -3.275)" fill="#c10230"/>
      <path id="패스_632" data-name="패스 632" d="M31.174,15.771a.718.718,0,0,0-.112-.235.476.476,0,0,0-.209-.163.585.585,0,0,0-.287-.055.607.607,0,0,0-.206.041.543.543,0,0,0-.162.118.448.448,0,0,0-.094.2c-.014.05-.035.161-.065.327a1.075,1.075,0,0,1-.067.249l-.095.105-.147.037a.37.37,0,0,1-.187-.039.311.311,0,0,1-.134-.145.543.543,0,0,1-.054-.231.623.623,0,0,1,.054-.28.448.448,0,0,1,.145-.186,2.069,2.069,0,0,1,.244-.024l0-.115a2.01,2.01,0,0,1-.479-.026,1.175,1.175,0,0,0-.119.6,1.12,1.12,0,0,0,.079.391.729.729,0,0,0,.134.2.672.672,0,0,0,.191.147.631.631,0,0,0,.312.064.708.708,0,0,0,.182-.035l.133-.071.089-.116a.68.68,0,0,0,.062-.18,1.729,1.729,0,0,0,.026-.191c.013-.094.026-.169.035-.222a.529.529,0,0,1,.056-.158l.086-.088.147-.038a.289.289,0,0,1,.223.093.412.412,0,0,1,.107.288.6.6,0,0,1-.039.238.373.373,0,0,1-.1.155c-.044.008-.118.015-.226.022l0,.115.227,0,.178.023.033-.011a.993.993,0,0,0,.068-.239,1.639,1.639,0,0,0,.015-.286,1.214,1.214,0,0,0-.041-.275" transform="translate(-6.292 -3.301)" fill="#c10230"/>
      <path id="패스_633" data-name="패스 633" d="M29.26,10.108a1.064,1.064,0,0,1,.208-.067l.052,0,.031.045c.035.067.073.146.111.237l.079.183c-.024.011-.14.063-.346.151l-.76.327a3.066,3.066,0,0,1-.337.131l-.066-.021a.536.536,0,0,1-.1-.169l-.1.045c.075.151.136.29.187.41s.105.252.169.42l.1-.045a.835.835,0,0,1-.057-.192l.034-.057a2.015,2.015,0,0,1,.323-.155l.762-.328c.2-.089.317-.136.349-.147l.077.181c.042.1.074.183.1.252l.008.046-.045.042c-.06.031-.119.066-.184.1l.045.1c.179-.075.275-.109.279-.113l.142-.045.009-.02-.06-.112c-.033-.07-.094-.214-.187-.428l-.22-.512c-.089-.206-.148-.348-.177-.421l-.046-.13-.017,0-.115.063c-.022.009-.12.055-.292.13Z" transform="translate(-6.041 -2.113)" fill="#c10230"/>
      <path id="패스_634" data-name="패스 634" d="M29.451,12.861c-.181-.026-.3-.044-.363-.054-.13-.021-.2-.036-.227-.042l-.048-.018-.027-.033a1.167,1.167,0,0,1-.046-.126l-.111.029.081.305.068.313.111-.027a.55.55,0,0,1-.022-.2l.04-.035a.961.961,0,0,1,.245.015l.179.02.165.69-.267.188-.1.053-.045-.009a.9.9,0,0,1-.064-.178l-.111.026.12.468.086.376.11-.027-.008-.058-.006-.084.006-.03.033-.034.107-.083.164-.129,1.257-.934-.045-.192-.334-.046Zm.184.732c-.024-.078-.046-.169-.073-.273s-.047-.2-.062-.287l.755.11Z" transform="translate(-6.17 -2.712)" fill="#c10230"/>
      <path id="패스_635" data-name="패스 635" d="M30.691,18.4a.517.517,0,1,0,.515.518.517.517,0,0,0-.515-.518" transform="translate(-6.503 -3.965)" fill="#c10230"/>
      <path id="패스_636" data-name="패스 636" d="M30.612,21.028l-.022.016-.028,0c-.02-.005-.071-.019-.157-.049-.015,0-.063-.023-.148-.056l-.341-.139-.276-.115-.122-.053-.081-.061a.239.239,0,0,1,.027-.137l.007-.01-.085-.035-.111.293c-.009.026-.032.081-.071.163l.111.107c.027.031.1.111.226.246l.219.236c.056.065.137.152.239.271l-.766.053-.176.007-.227.011c-.023.068-.049.139-.078.2s-.059.141-.115.278l.082.033.061-.111.024-.029h.027a.82.82,0,0,1,.187.059c.1.038.22.085.352.139s.253.1.312.127c.124.053.2.093.238.11l.033.027,0,.022a.679.679,0,0,1-.033.14l.081.033c.02-.061.049-.14.089-.24.032-.077.065-.151.1-.222l-.082-.036c-.032.064-.051.107-.06.117l-.031.021H29.98c-.015,0-.077-.027-.189-.068s-.206-.078-.287-.112l-.482-.191.629-.046c.095-.008.242-.016.437-.025.111-.006.2-.01.264-.01l.027-.067-.136-.142c-.093-.1-.166-.176-.213-.228l-.183-.2-.369-.411.712.285a1.844,1.844,0,0,1,.24.107l.037.042a.669.669,0,0,1-.042.145l.081.032.119-.308.13-.308-.082-.034c-.034.07-.054.11-.06.118" transform="translate(-6.172 -4.395)" fill="#c10230"/>
      <path id="패스_637" data-name="패스 637" d="M29.169,23.537l-.163-.12-.21-.129c-.064-.041-.151-.1-.256-.171a1.4,1.4,0,0,1-.175-.127l-.014-.031.053-.115-.077-.049-.121.2-.014.027c-.013.021-.053.082-.126.19l.075.048a.334.334,0,0,1,.1-.118l.034-.008a.726.726,0,0,1,.146.073c.035.02.133.079.292.18l.187.115a.849.849,0,0,1,.239.2.3.3,0,0,1,.048.173.632.632,0,0,1-.227.388l-.152.055-.162-.044c-.027-.014-.1-.053-.207-.124l-.106-.065-.209-.129a2.032,2.032,0,0,1-.242-.168l-.02-.038a.338.338,0,0,1,.06-.138l-.072-.043-.021.034-.074.122-.075.125-.188.292.077.047.084-.113.038,0,.064.023c.07.039.147.086.234.135l.227.147.176.11a1.588,1.588,0,0,0,.177.1l.129.033.157-.02.159-.1a1.079,1.079,0,0,0,.2-.235.784.784,0,0,0,.1-.224.5.5,0,0,0,.023-.2.412.412,0,0,0-.05-.167Z" transform="translate(-5.925 -4.913)" fill="#c10230"/>
      <path id="패스_638" data-name="패스 638" d="M28.338,25.5l-.027.019-.029,0-.12-.078-.154-.115-.343-.264c-.01-.005-.086-.067-.221-.177l-.082-.067-.046-.05-.005-.019.006-.032.072-.106-.075-.056c-.065.095-.14.194-.219.295s-.134.172-.193.242l.072.058.092-.1.025-.012.026,0c.019.011.065.041.14.093.031.024.106.079.216.164l.355.275a2.308,2.308,0,0,1,.182.15l.075.067.009.019-.009.034-.074.1.075.06c.051-.075.111-.157.181-.249s.159-.2.231-.289l-.072-.056Z" transform="translate(-5.798 -5.292)" fill="#c10230"/>
      <path id="패스_639" data-name="패스 639" d="M26.272,27.7l-.034.01-.027-.01-.1-.1-.129-.149-.279-.328c-.008-.007-.067-.081-.18-.217l-.064-.078-.039-.064,0-.018.017-.029.093-.087-.062-.075c-.084.08-.178.162-.278.246s-.17.14-.238.195l.06.073.108-.083.029,0,.02.008a1.292,1.292,0,0,1,.119.121c.028.031.087.1.178.2l.289.34c.045.06.094.121.145.187l.061.083,0,.018-.018.03-.09.087.06.075c.065-.062.141-.13.227-.206.1-.087.2-.163.287-.234l-.06-.072Z" transform="translate(-5.378 -5.723)" fill="#c10230"/>
      <path id="패스_640" data-name="패스 640" d="M11.608,29.03c-.109-.042-.2-.08-.286-.117L11.288,29c.071.031.111.049.123.056l.02.021V29.1a.874.874,0,0,1-.049.164c-.013.038-.044.123-.093.257l-.158.415c-.025.068-.055.141-.093.219l-.045.093-.016.009h-.03a.661.661,0,0,1-.125-.036l-.032.086c.086.031.183.063.287.1a3.642,3.642,0,0,1,.346.14l.032-.091c-.06-.026-.1-.043-.114-.05l-.025-.025-.005-.024a.671.671,0,0,1,.041-.14l.065-.18.153-.4c.007-.015.04-.1.1-.263l.042-.1.034-.064.016-.011H11.8a.873.873,0,0,1,.121.036l.033-.086c-.111-.037-.224-.081-.347-.124" transform="translate(-2.326 -6.231)" fill="#c10230"/>
      <path id="패스_641" data-name="패스 641" d="M8.844,27.588c-.1-.063-.18-.122-.253-.175l-.052.079a.751.751,0,0,1,.107.082l.016.022,0,.024a1.6,1.6,0,0,1-.081.148c-.022.038-.071.115-.147.233l-.241.373c-.041.061-.086.126-.137.2l-.06.078-.018.009-.034-.009a.663.663,0,0,1-.111-.06l-.052.078a3.057,3.057,0,0,1,.261.163c.111.07.213.14.308.206l.051-.077-.1-.078-.016-.03v-.024l.066-.126.1-.166.234-.359c.006-.013.059-.089.156-.234l.063-.086.045-.054.02-.012L9,27.8l.113.064.052-.079c-.1-.059-.206-.124-.316-.194" transform="translate(-1.677 -5.908)" fill="#c10230"/>
      <path id="패스_642" data-name="패스 642" d="M27.278,26.591l-.055,0a2.394,2.394,0,0,1-.2-.185l-.458-.446c-.125-.119-.194-.184-.209-.2l.107-.111.152-.146.028-.017.043.019.124.1.065-.062c-.109-.109-.164-.16-.17-.167l-.071-.086h-.013l-.066.078c-.042.042-.123.129-.249.257l-.3.311c-.119.125-.2.207-.247.25l-.078.072v.014l.079.063c.014.012.074.067.18.168L26,26.431l-.111-.127-.018-.036.022-.032.135-.155.107-.109c.02.012.088.082.212.2l.458.447a1.631,1.631,0,0,1,.19.2l.009.052-.093.121.062.062c.087-.1.166-.184.235-.26s.151-.144.249-.241l-.061-.06Z" transform="translate(-5.534 -5.448)" fill="#c10230"/>
      <path id="패스_643" data-name="패스 643" d="M13.458,29.721l.034.019v.048l-.03.153.084.028c.042-.145.067-.22.07-.227l.042-.1-.008-.012-.095-.02-.351-.1-.412-.122c-.166-.049-.279-.082-.338-.1l-.1-.038-.013.009-.017.1c-.005.016-.027.095-.065.238l.086.023.062-.155.021-.031h.044c.056.016.124.029.2.05l.147.044c0,.021-.03.115-.078.279l-.18.616a1.93,1.93,0,0,1-.086.261l-.045.034a.835.835,0,0,1-.151-.026l-.024.082c.129.031.242.06.34.086s.2.064.33.108l.024-.084a.683.683,0,0,1-.14-.057l-.019-.05a1.58,1.58,0,0,1,.065-.268l.179-.615c.048-.163.074-.259.086-.28l.144.042c.081.025.148.045.2.065" transform="translate(-2.64 -6.303)" fill="#c10230"/>
      <path id="패스_644" data-name="패스 644" d="M7.221,27.628l.4-.5c.106-.133.166-.208.185-.225l.118.1a2,2,0,0,1,.158.137l.022.027-.019.045L8,27.347l.069.054c.095-.113.145-.178.15-.18l.082-.081,0-.013-.081-.058c-.049-.037-.142-.113-.282-.223L7.6,26.574c-.137-.109-.23-.186-.274-.224l-.078-.071H7.237l-.055.084-.153.2.071.056.118-.12.034-.022.035.019.162.123.119.093c-.012.018-.073.093-.182.23l-.4.5a1.206,1.206,0,0,1-.184.208l-.051.016a.552.552,0,0,1-.129-.085l-.056.069c.108.078.2.145.28.211s.162.136.266.226l.053-.064a.539.539,0,0,1-.107-.111V27.85a1.825,1.825,0,0,1,.165-.223" transform="translate(-1.414 -5.663)" fill="#c10230"/>
      <path id="패스_645" data-name="패스 645" d="M24.577,27.8l-.037-.192a1.09,1.09,0,0,1-.031-.264l.089-.087-.05-.078-.19.129-.229.147.049.075.1-.056.036-.015.017,0,.022.022.013.016c.009.029.024.089.046.178.027.128.042.2.044.214l.126.619-.587-.4-.017-.014-.094-.064a.944.944,0,0,1-.17-.133l-.007-.028.02-.029.1-.079-.051-.076-.317.213c-.03.023-.118.076-.265.166l.051.078.122-.058.1.044c.053.03.206.133.46.3l.325.22c.121.083.247.17.378.263l.137-.09c-.031-.126-.075-.345-.136-.657Z" transform="translate(-5 -5.857)" fill="#c10230"/>
      <path id="패스_646" data-name="패스 646" d="M10.839,28.735a.3.3,0,0,1,.115.032L11,28.685l-.209-.1-.238-.129-.042.081.1.061.034.022.005.021-.005.025-.012.023c-.022.022-.067.066-.133.126a2.131,2.131,0,0,1-.161.144l-.476.416.061-.709v-.019c0-.009,0-.046.009-.117a.944.944,0,0,1,.032-.211l.018-.02h.037l.121.049.042-.083L9.837,28.1l-.274-.151-.042.083.107.077a.246.246,0,0,1,.017.113c0,.06-.014.244-.037.551l-.031.395c-.013.14-.025.293-.038.455l.144.073c.093-.089.26-.236.5-.439l.286-.242.147-.122a.821.821,0,0,1,.218-.16" transform="translate(-2.052 -6.024)" fill="#c10230"/>
      <path id="패스_647" data-name="패스 647" d="M23.6,29.523l-.046-.006-.144-.071s-.042-.022-.111-.063l-.257-.151-.022-.011-.061-.038-.1-.061A.55.55,0,0,0,23,28.865a.385.385,0,0,0-.035-.247.293.293,0,0,0-.133-.14l-.172-.024a.842.842,0,0,0-.235.088c-.054.026-.117.058-.2.1-.044.026-.1.054-.17.088s-.137.068-.181.089c-.089.04-.14.067-.155.073l.035.078a.636.636,0,0,1,.155-.054l.021.01a.89.89,0,0,1,.083.14l.1.2.176.351.131.284.045.118.005.031-.013.018a.817.817,0,0,1-.122.075l.042.086c.082-.047.173-.1.271-.145s.224-.108.335-.158l-.042-.085c-.063.028-.1.045-.111.051H22.81l-.021-.006-.045-.064c-.007-.015-.049-.09-.113-.22-.056-.1-.108-.206-.155-.3-.03-.059-.089-.181-.173-.363-.038-.079-.063-.136-.073-.155l.089-.053a.42.42,0,0,1,.149-.058l.144.028.113.128.041.177-.052.147a.386.386,0,0,1-.16.107l0,.035.092.035c.07.034.157.088.262.154l.372.236.051.042.151-.078c.042-.024.115-.056.214-.1L23.66,29.5Z" transform="translate(-4.683 -6.132)" fill="#c10230"/>
      <path id="패스_648" data-name="패스 648" d="M3.612,23.753s.021-.044.058-.115l.144-.261.009-.022.036-.064.057-.1a.538.538,0,0,0,.268.137.394.394,0,0,0,.243-.04.293.293,0,0,0,.136-.14l.02-.169a.984.984,0,0,0-.1-.232c-.027-.052-.06-.116-.105-.194-.031-.044-.059-.1-.1-.166s-.071-.137-.092-.181c-.045-.087-.07-.137-.079-.154l-.076.044a.538.538,0,0,1,.056.149l-.01.022a.619.619,0,0,1-.133.086l-.2.11-.35.189-.278.137-.114.049-.031.008-.018-.013a.515.515,0,0,1-.079-.122l-.082.046c.045.079.1.172.149.27s.115.217.169.326l.082-.044L3.147,23.2l-.005-.03.006-.022.064-.045.215-.122c.105-.064.206-.115.3-.164.058-.034.177-.1.358-.187.08-.038.133-.061.155-.075l.054.085a.6.6,0,0,1,.062.149l-.026.147-.121.118-.176.041-.147-.044a.439.439,0,0,1-.118-.157l-.034,0L3.7,22.99a2.265,2.265,0,0,1-.145.268l-.224.378-.042.05.083.147c.023.045.059.115.107.213L3.561,24l-.023-.064.009-.042a1.089,1.089,0,0,1,.064-.145" transform="translate(-0.603 -4.753)" fill="#c10230"/>
      <path id="패스_649" data-name="패스 649" d="M21.6,30.121a1.3,1.3,0,0,1,.025.2l-.009.019-.107.062c-.06.024-.126.048-.2.071s-.143.044-.2.061l-.045-.126-.142-.43c.043-.017.094-.035.162-.06s.135-.035.183-.046l.053.013a.347.347,0,0,1,.063.14l.086-.03-.077-.218-.07-.228-.08.026a.512.512,0,0,1,.027.136l-.006.024-.064.03-.165.059-.146.045-.07-.212a2.013,2.013,0,0,1-.08-.3c.063-.02.122-.044.181-.067a1.319,1.319,0,0,1,.2-.051l.088-.009.016.013a.946.946,0,0,1,.058.145l.081-.027c-.021-.089-.038-.136-.041-.149l-.027-.151-.009-.013-.038.005c-.074.021-.126.036-.151.046l-.2.074-.308.1-.135.042-.234.07.027.089a.515.515,0,0,1,.151-.027l.02.009a.648.648,0,0,1,.06.137c.04.111.064.18.07.192l.147.46c.016.053.043.137.075.256.019.064.031.111.038.14l-.082.091.019.056c.207-.07.318-.112.335-.117.063-.02.174-.053.333-.107l.167-.049c.078-.027.138-.05.183-.069l.006-.019a2.666,2.666,0,0,1-.084-.333Z" transform="translate(-4.357 -6.26)" fill="#c10230"/>
      <path id="패스_650" data-name="패스 650" d="M4.738,25.2a1.326,1.326,0,0,1-.184.083H4.53L4.445,25.2l-.13-.168c-.046-.064-.084-.12-.113-.168l.1-.082.366-.261.107.135.1.162,0,.053c-.006.02-.045.053-.115.1l.054.074.191-.137.191-.136-.051-.07-.12.067H5l-.044-.049c-.061-.081-.1-.129-.1-.143l-.086-.129.177-.126a2.484,2.484,0,0,1,.26-.166l.115.154a1.734,1.734,0,0,1,.114.177l.035.078-.011.024a.857.857,0,0,1-.118.1l.047.069c.078-.047.122-.076.135-.082l.133-.074.008-.015-.015-.031c-.044-.063-.071-.106-.087-.128l-.131-.176c-.071-.093-.135-.184-.192-.262l-.079-.115-.139-.2-.075.051a.664.664,0,0,1,.075.137l-.005.023a.554.554,0,0,1-.111.1c-.095.069-.152.112-.166.121l-.391.278c-.047.032-.121.082-.222.149L4,24.6l-.112-.049-.045.035c.129.177.2.274.212.285.039.052.105.147.2.287l.1.14a1.31,1.31,0,0,0,.118.156l.02,0a3.139,3.139,0,0,1,.3-.184Z" transform="translate(-0.828 -5.101)" fill="#c10230"/>
      <path id="패스_651" data-name="패스 651" d="M19.951,30.386l-.067-.093-.1-.056-.147-.023c-.02,0-.071,0-.144,0s-.134,0-.175,0l-.13-.022-.077-.056-.043-.109a.224.224,0,0,1,.044-.182.314.314,0,0,1,.207-.116.481.481,0,0,1,.184,0l.13.062a.945.945,0,0,1,.046.169l.086-.016c-.011-.072-.018-.131-.024-.175l0-.139-.014-.023a.731.731,0,0,0-.189-.021,1.347,1.347,0,0,0-.221.02,1.159,1.159,0,0,0-.2.064.611.611,0,0,0-.165.115.429.429,0,0,0-.1.178.475.475,0,0,0-.008.228l.057.147.111.109a.3.3,0,0,0,.158.053c.042,0,.129.007.259.009a.8.8,0,0,1,.2.023l.091.06.046.11-.012.147-.09.118a.437.437,0,0,1-.171.07.457.457,0,0,1-.221-.009.333.333,0,0,1-.158-.087,1.084,1.084,0,0,1-.048-.186l-.086.016a1.854,1.854,0,0,1,.035.372,1.284,1.284,0,0,0,.238.04,1.128,1.128,0,0,0,.235-.02.866.866,0,0,0,.289-.108l.136-.126.088-.159A.483.483,0,0,0,20,30.519Z" transform="translate(-4.057 -6.376)" fill="#c10230"/>
      <path id="패스_652" data-name="패스 652" d="M16.865,30.683l-.082-.072-.141-.056c-.02-.007-.069-.012-.142-.026s-.13-.027-.173-.037l-.12-.049-.063-.071-.023-.115a.215.215,0,0,1,.083-.17.322.322,0,0,1,.225-.071.433.433,0,0,1,.181.039l.114.084c.005.036.006.092.009.174l.089,0c0-.073.006-.132.013-.178l.024-.133-.009-.027a.655.655,0,0,0-.181-.064,1.587,1.587,0,0,0-.22-.019.8.8,0,0,0-.213.019.61.61,0,0,0-.187.077.391.391,0,0,0-.133.155.515.515,0,0,0-.053.22l.026.16.082.125a.308.308,0,0,0,.146.085l.254.065a.678.678,0,0,1,.187.057l.077.077.024.12-.038.141-.115.1a.4.4,0,0,1-.182.032.456.456,0,0,1-.214-.053.32.32,0,0,1-.137-.118,1.794,1.794,0,0,1-.01-.191h-.088a1.639,1.639,0,0,1-.038.369.887.887,0,0,0,.221.087.979.979,0,0,0,.235.027.736.736,0,0,0,.3-.049l.159-.094.121-.139a.464.464,0,0,0,.059-.242l-.017-.138Z" transform="translate(-3.413 -6.443)" fill="#c10230"/>
      <path id="패스_653" data-name="패스 653" d="M14.948,31.247l-.018-.015-.016-.03-.025-.1-.04-.154-.288-1.176-.151-.028-.128.224-.39.632c-.074.119-.126.2-.147.241-.056.084-.09.133-.1.148l-.03.028-.033.01-.1-.008-.016.089.245.032.243.048.011-.087a.521.521,0,0,1-.147-.042l-.009-.04a.709.709,0,0,1,.083-.17l.065-.122.542.088.054.249.008.091-.022.028a.7.7,0,0,1-.144-.009l-.016.087.372.055.289.055.016-.088-.045-.014Zm-.7-.595c-.083-.016-.155-.027-.223-.038l.306-.51.136.582c-.064-.009-.137-.019-.219-.035" transform="translate(-2.902 -6.409)" fill="#c10230"/>
      <path id="패스_654" data-name="패스 654" d="M5.958,26.968l.064-.148.5-1.1-.1-.11-.243.092-.7.257c-.132.05-.221.083-.264.1-.1.035-.155.053-.169.057l-.041,0L4.98,26.1,4.9,26.034l-.066.061.172.177.16.185.064-.06a.426.426,0,0,1-.086-.125l.015-.038a.779.779,0,0,1,.17-.084l.128-.049.366.4-.109.226-.049.075-.034.011a.872.872,0,0,1-.11-.1l-.065.059.258.272.194.219.067-.056-.027-.037-.038-.054,0-.024,0-.034Zm-.078-.584c-.042-.046-.1-.1-.15-.161l-.149-.169.553-.207Z" transform="translate(-1.042 -5.519)" fill="#c10230"/>
      <path id="패스_655" data-name="패스 655" d="M2.782,22.095a.787.787,0,0,1-.158-.162.863.863,0,0,1-.1-.18.742.742,0,0,1-.061-.283.7.7,0,0,1,.053-.2.617.617,0,0,1,.144-.2.952.952,0,0,1,.261-.16.632.632,0,0,1,.466-.025.538.538,0,0,1,.3.315.544.544,0,0,1,.048.224.454.454,0,0,1-.042.19,1.545,1.545,0,0,1-.17.082l.03.075c.066-.02.136-.041.216-.062l.129-.023.009-.013a1.367,1.367,0,0,0-.031-.272,1.262,1.262,0,0,0-.075-.25.921.921,0,0,0-.439-.521.723.723,0,0,0-.6-.011.864.864,0,0,0-.308.209.742.742,0,0,0-.137.212.678.678,0,0,0-.053.273,1.05,1.05,0,0,0,.08.4,1.145,1.145,0,0,0,.124.234,1.112,1.112,0,0,0,.178.188l.12.007Z" transform="translate(-0.488 -4.429)" fill="#c10230"/>
      <path id="패스_656" data-name="패스 656" d="M2.535,19.339a.517.517,0,1,0-.515-.516.515.515,0,0,0,.515.516" transform="translate(-0.435 -3.945)" fill="#c10230"/>
      <path id="패스_657" data-name="패스 657" d="M2.6,11.726l.034-.045.027-.01a.685.685,0,0,1,.165.04c.092.031.191.066.3.1l1.021.362c.02.006.119.045.3.115a1.316,1.316,0,0,1,.176.078l.052.064-.009.083-.048.077-.11.078,0,.037a2.524,2.524,0,0,1,.239.09l.053-.1a.361.361,0,0,0,.02-.167.907.907,0,0,0-.038-.2.943.943,0,0,0-.094-.2.742.742,0,0,0-.19-.21,1.3,1.3,0,0,0-.322-.157l-.559-.19L3.157,11.4c-.128-.045-.225-.085-.3-.117L2.8,11.244,2.8,11.186a1.667,1.667,0,0,1,.049-.162l-.115-.039c-.029.1-.071.227-.121.369-.06.172-.123.344-.187.506l.114.04Z" transform="translate(-0.522 -2.367)" fill="#c10230"/>
      <path id="패스_658" data-name="패스 658" d="M3.574,10.178a1.131,1.131,0,0,0,.327.3,1.049,1.049,0,0,0,.53.191.848.848,0,0,0,.469-.112,1.148,1.148,0,0,0,.383-.392,1.266,1.266,0,0,0,.2-.477.909.909,0,0,0-.009-.353.8.8,0,0,0-.143-.318,1.268,1.268,0,0,0-.354-.341,1.243,1.243,0,0,0-.255-.124A.763.763,0,0,0,4.477,8.5a.78.78,0,0,0-.271.035.86.86,0,0,0-.278.144,1.524,1.524,0,0,0-.5.775.908.908,0,0,0,.142.721M3.737,9.14a.577.577,0,0,1,.2-.207.566.566,0,0,1,.246-.063.865.865,0,0,1,.293.044,1.556,1.556,0,0,1,.321.158,1.386,1.386,0,0,1,.362.326.57.57,0,0,1,.12.333.6.6,0,0,1-.1.308.555.555,0,0,1-.621.255,1.38,1.38,0,0,1-.5-.213A1.248,1.248,0,0,1,3.756,9.8a.535.535,0,0,1-.125-.322.611.611,0,0,1,.106-.34" transform="translate(-0.735 -1.832)" fill="#c10230"/>
      <path id="패스_659" data-name="패스 659" d="M7.837,5.521a1.085,1.085,0,0,0,.329.344.862.862,0,0,0,.288.117.963.963,0,0,0,.347.012,1.31,1.31,0,0,0,.519-.206,1.841,1.841,0,0,0,.3-.233,2.947,2.947,0,0,0,.31-.352l-.126-.175c-.023-.036-.06-.1-.115-.2l-.028-.071.067-.093-.05-.077-.348.225-.351.213.056.092a1.675,1.675,0,0,1,.237-.112h.045a.658.658,0,0,1,.091.126l.067.109.071.125-.118.142-.14.112a.715.715,0,0,1-.584.08.92.92,0,0,1-.528-.434.8.8,0,0,1-.137-.61A.725.725,0,0,1,8.4,4.184a.884.884,0,0,1,.244-.111.752.752,0,0,1,.224-.031l.1.02.068.08.075.106L9.2,4.191a3.112,3.112,0,0,1-.177-.4L9,3.778a1.6,1.6,0,0,0-.318.088,2,2,0,0,0-.392.2,1.653,1.653,0,0,0-.281.213,1.056,1.056,0,0,0-.2.253,1.025,1.025,0,0,0-.117.3.834.834,0,0,0,0,.336.969.969,0,0,0,.147.353" transform="translate(-1.654 -0.814)" fill="#c10230"/>
      <path id="패스_660" data-name="패스 660" d="M5.57,16.055s.224.639.377,1.15l-.307-1.264a.173.173,0,0,0-.071.114" transform="translate(-1.2 -3.435)" fill="#c10230"/>
      <path id="패스_661" data-name="패스 661" d="M6.186,18.1l-.135-.551Z" transform="translate(-1.304 -3.782)" fill="#c10230"/>
      <path id="패스_662" data-name="패스 662" d="M27.849,16.055a.167.167,0,0,0-.067-.114L27.474,17.2c.151-.511.375-1.15.375-1.15" transform="translate(-5.921 -3.435)" fill="#c10230"/>
      <path id="패스_663" data-name="패스 663" d="M22.035,15.726a3.233,3.233,0,0,0-.264,1.554,1.965,1.965,0,0,0-1.945-.129c.038.129.435.431.435.431.019,1.432.869,1.723.869,1.723a1.044,1.044,0,0,0-.378.471,1.733,1.733,0,0,0-1.4-.435,1.844,1.844,0,0,0,1.059,1.491,1.53,1.53,0,0,0-.04.646,2.825,2.825,0,0,0-.752.661c.11-1.062-.268-1.419-.268-1.419a2.364,2.364,0,0,0-.905,1.1,2.554,2.554,0,0,0-1.665.889l.076-.342c-2,.434-1.984,1.851-1.984,1.851l-.093-.036a.786.786,0,0,0-1.538,0l-.094.036s.019-1.417-1.984-1.851l.076.342a2.555,2.555,0,0,0-1.663-.889,2.361,2.361,0,0,0-.907-1.1s-.377.357-.265,1.419a2.831,2.831,0,0,0-.755-.661,1.53,1.53,0,0,0-.04-.646,1.844,1.844,0,0,0,1.06-1.491,1.735,1.735,0,0,0-1.4.435A1.043,1.043,0,0,0,6.9,19.3s.851-.291.871-1.723c0,0,.4-.3.434-.431a1.966,1.966,0,0,0-1.945.129,2.53,2.53,0,0,0-1.21-2.493A2.972,2.972,0,0,0,5.1,17.034a2.8,2.8,0,0,0-.623-.246,1.833,1.833,0,0,0,.358,1.362,1.324,1.324,0,0,0-.83.169A2.655,2.655,0,0,0,5.48,19.6a2.815,2.815,0,0,0,.151.322A2.651,2.651,0,0,0,4.29,20.1a4.723,4.723,0,0,0,.755.7,3.016,3.016,0,0,0,.773.359l-.209.075s.947,1.266,1.8,1.418a1.963,1.963,0,0,0-.83.453,3.032,3.032,0,0,0,2.492.7,2.9,2.9,0,0,0-.453.643,3.433,3.433,0,0,0,1.888-.08l-.094.231a2.216,2.216,0,0,0,1.531-.474l.377.265a12.729,12.729,0,0,0-1.814.453l.757.549a2.767,2.767,0,0,1,.584-.32,12.68,12.68,0,0,0,2.167.263,12.681,12.681,0,0,0,2.168-.263,2.7,2.7,0,0,1,.586.32l.754-.549a12.729,12.729,0,0,0-1.813-.453l.377-.265a2.219,2.219,0,0,0,1.531.474l-.095-.231a3.441,3.441,0,0,0,1.891.08,2.9,2.9,0,0,0-.455-.643,3.042,3.042,0,0,0,2.5-.7,1.989,1.989,0,0,0-.832-.453c.85-.151,1.8-1.418,1.8-1.418l-.209-.075a3.016,3.016,0,0,0,.776-.359,4.758,4.758,0,0,0,.755-.7,2.654,2.654,0,0,0-1.341-.173,2.746,2.746,0,0,0,.15-.322,2.672,2.672,0,0,0,1.476-1.285,1.329,1.329,0,0,0-.831-.169,1.835,1.835,0,0,0,.359-1.362,2.811,2.811,0,0,0-.625.246,2.987,2.987,0,0,0,.058-2.247,1.838,1.838,0,0,0-.748.606Zm1.683,2.688-.084.1s-.068-.13-.162-.1a11.008,11.008,0,0,0-1.681.719,1.627,1.627,0,0,1,1.927-.719m-1.973,1.17a1.506,1.506,0,0,0,.539.049l-.171.329-.359.248a2.974,2.974,0,0,0-.009-.627m-.114-1.463L22,18.13a4.956,4.956,0,0,0-.14.539l-.228.265a3.638,3.638,0,0,0,0-.813m1.236.048h-.093a2.909,2.909,0,0,0,.51-.768,1.217,1.217,0,0,1-.417.768m.285-.986a5.743,5.743,0,0,1-.718,1.1l-.3.167a1.826,1.826,0,0,1,1.021-1.268m-.289-2.069a2.492,2.492,0,0,1-.58,2.393,3.661,3.661,0,0,1,.133-.551l.308-1.264c-.067-.034-.138.06-.138.06a12.41,12.41,0,0,0-.53,1.705,2.195,2.195,0,0,1,.808-2.344m-1.025,2.659a5.05,5.05,0,0,0-1.305-.6c1.107-.144,1.305.6,1.305.6m-.285.086a2.177,2.177,0,0,1-1.17-.484,4.58,4.58,0,0,1,1.17.484m-.045,1.708a2.331,2.331,0,0,1-.264,1.605l-.257.039a4.22,4.22,0,0,0,.322-.831,3.36,3.36,0,0,1,.2-.814m-.435-1.578.3.075a2.737,2.737,0,0,1,.041.9,3.929,3.929,0,0,1-.343-.974m-.568-.265.314.191a5.471,5.471,0,0,0,.389,1.156,1.508,1.508,0,0,1-.7-1.347m.784,1.795a2.808,2.808,0,0,0-.168.632,3.5,3.5,0,0,1-.446,1.183l-.094.027c.064-1.645.708-1.843.708-1.843m-.679.452-.046.143a7.123,7.123,0,0,0-.663-.53.861.861,0,0,1,.709.387m-.954-.28a4.5,4.5,0,0,1,.813.65l-.039.228a1.484,1.484,0,0,1-.773-.878m-.366,1.359a.581.581,0,0,1,.045.179s-.159-.046-.178.1c0,0-.472,1.487-.843,1.648a2.906,2.906,0,0,1,.976-1.925M18.3,23.27s.435-.031,1.075-1.891A1.742,1.742,0,0,1,18.3,23.343Zm-.086-1.191c-.782,1.607-1.549,1.67-1.549,1.67a15.839,15.839,0,0,1,1.36-1.4c.086-.141-.027-.207-.027-.207a1,1,0,0,1,.216-.059m-.283,1.273-.245-.026c.085-.1.4-.559.4-.559l-.009.4a.175.175,0,0,0-.143.188M17.8,22.231s-1.112,1.076-1.152,1.191A2.057,2.057,0,0,1,17.8,22.231m-6.429,1.191c-.037-.115-1.153-1.191-1.153-1.191a2.05,2.05,0,0,1,1.153,1.191m-1.352-1.283s-.115.066-.028.207a15.493,15.493,0,0,1,1.362,1.4s-.766-.064-1.551-1.67a.957.957,0,0,1,.217.059m-.075,1.026-.01-.4s.311.463.4.559l-.245.026a.175.175,0,0,0-.142-.188M8.74,21.05a2.9,2.9,0,0,1,.971,1.925c-.367-.162-.84-1.648-.84-1.648-.018-.144-.178-.1-.178-.1a.522.522,0,0,1,.047-.179m-.1.329c.643,1.86,1.082,1.891,1.082,1.891v.073A1.747,1.747,0,0,1,8.642,21.38M7.6,20.569,7.56,20.34a4.511,4.511,0,0,1,.81-.65,1.483,1.483,0,0,1-.772.878m.527-.985a7.079,7.079,0,0,0-.662.53l-.047-.143a.863.863,0,0,1,.709-.387m-.681,1.778-.093-.027a3.479,3.479,0,0,1-.443-1.183,2.807,2.807,0,0,0-.172-.632s.642.2.708,1.843m-.726-.981a4.143,4.143,0,0,0,.32.831l-.253-.039a2.324,2.324,0,0,1-.266-1.605,3.469,3.469,0,0,1,.2.814m-.064-2.317.3-.075a4.1,4.1,0,0,1-.337.974,2.757,2.757,0,0,1,.038-.9m.168,1.007a5.409,5.409,0,0,0,.386-1.156l.315-.191a1.509,1.509,0,0,1-.7,1.347m-.35-1.212a4.636,4.636,0,0,1,1.17-.484,2.184,2.184,0,0,1-1.17.484m1.021-.682a5.108,5.108,0,0,0-1.3.6s.2-.739,1.3-.6M6.4,18.934l-.226-.265a5.073,5.073,0,0,0-.143-.539l.369-.009a3.688,3.688,0,0,0,0,.813m-.121,1.277-.362-.248-.167-.329a1.486,1.486,0,0,0,.535-.049,2.889,2.889,0,0,0-.005.627m-1.112-5.1a2.193,2.193,0,0,1,.809,2.344,12.43,12.43,0,0,0-.531-1.705s-.072-.093-.136-.06l.307,1.264a4.34,4.34,0,0,1,.135.551,2.481,2.481,0,0,1-.583-2.393M5.9,18.451l-.3-.167a5.712,5.712,0,0,1-.717-1.1A1.821,1.821,0,0,1,5.9,18.451M4.743,17.4a2.953,2.953,0,0,0,.51.768h-.1a1.216,1.216,0,0,1-.414-.768m-.349,1.116-.086-.1a1.626,1.626,0,0,1,1.927.719,10.979,10.979,0,0,0-1.68-.719c-.1-.027-.161.1-.161.1m.1.122a8.6,8.6,0,0,1,1.709.744A1.792,1.792,0,0,1,4.5,18.64m.19,1.571c1.594-.408,1.746.727,1.746.727a3.1,3.1,0,0,0-1.47-.767c-.22,0-.087.18-.087.18a2.762,2.762,0,0,1,1.3.681,3.218,3.218,0,0,1-1.493-.821m1.5,1.341A.688.688,0,0,1,6,21.362,2.211,2.211,0,0,1,8.286,22.37a7.239,7.239,0,0,0-1.939-.944c-.168-.064-.159.126-.159.126m.067.064a7.2,7.2,0,0,1,1.888.926,2.459,2.459,0,0,1-1.888-.926m.707,1.465a2.008,2.008,0,0,1,1.832-.15,2.835,2.835,0,0,0,.38.367c-.569-.172-1.651-.348-1.651-.348-.2.053-.04.195-.04.195.86.162,1.737.409,1.737.409a2.538,2.538,0,0,1-2.257-.473M9.107,24.3l-.13-.005a1.429,1.429,0,0,1,1.727-.607s-1.38.413-1.53.49a.1.1,0,0,0-.067.122m.38,0s1.247-.417,1.5-.453l.105.056a2.824,2.824,0,0,1-1.606.4m1.366.057c.173-.133.464-.349.464-.349l.246.048a1.545,1.545,0,0,1-.711.3m.606-1.7c1.512.511,1.493,1.6,1.493,1.6a9.762,9.762,0,0,1-1.173-1.3c-.253-.114-.158.149-.158.149.367.455.908,1.1.908,1.1-.881-.17-1.071-1.544-1.071-1.544m2.561,2.356h-.01a7.589,7.589,0,0,1-1.577-.152,5.648,5.648,0,0,1,1.581-.285,5.657,5.657,0,0,1,1.582.285,7.585,7.585,0,0,1-1.575.152M15.5,24.2s.538-.643.906-1.1c0,0,.094-.263-.162-.149a9.739,9.739,0,0,1-1.171,1.3s-.019-1.087,1.493-1.6c0,0-.188,1.374-1.066,1.544m.963-.143.247-.048s.292.217.464.349a1.551,1.551,0,0,1-.711-.3m.471-.153.107-.056c.253.037,1.5.453,1.5.453a2.825,2.825,0,0,1-1.608-.4m2.117.391-.13.005a.107.107,0,0,0-.067-.122c-.151-.077-1.531-.49-1.531-.49a1.431,1.431,0,0,1,1.728.607m2.011-1.212a2.536,2.536,0,0,1-2.256.473s.879-.247,1.736-.409c0,0,.163-.141-.038-.195,0,0-1.084.177-1.651.348a2.787,2.787,0,0,0,.377-.367,2.008,2.008,0,0,1,1.832.15m-1.181-.54a7.2,7.2,0,0,1,1.889-.926,2.462,2.462,0,0,1-1.889.926m1.956-.99s.009-.19-.159-.126a7.2,7.2,0,0,0-1.936.944,2.2,2.2,0,0,1,2.284-1.008.688.688,0,0,1-.188.19m1.5-1.341a3.209,3.209,0,0,1-1.492.821,2.763,2.763,0,0,1,1.305-.681s.132-.18-.089-.18a3.1,3.1,0,0,0-1.472.767s.153-1.135,1.747-.727m-1.52-.827a8.678,8.678,0,0,1,1.708-.744,1.787,1.787,0,0,1-1.708.744" transform="translate(-0.863 -3.187)" fill="#c10230"/>
      <path id="패스_664" data-name="패스 664" d="M27.438,17.552l-.132.551Z" transform="translate(-5.885 -3.782)" fill="#c10230"/>
      <path id="패스_665" data-name="패스 665" d="M17.152,18.623a.844.844,0,0,1-1.1,0V20.89a1.113,1.113,0,0,0,1.1,0Z" transform="translate(-3.459 -4.013)" fill="#c10230"/>
      <path id="패스_666" data-name="패스 666" d="M9.522,15.285a2.871,2.871,0,0,0,2.917,3.056s2.433.1,1.929-2.055H13.335s.712,1.112-.553,1.3c0,0-1.47.251-1.375-2.089a6.449,6.449,0,0,1,2.228-4.315,1.779,1.779,0,0,1-.323-1.722A2.031,2.031,0,0,1,14.78,8.132l-.1,3.7.494.3v.009l0-.007.007.007v-.009l.492-.3-.1-3.7a2.032,2.032,0,0,1,1.458,1.319,1.789,1.789,0,0,1-.322,1.722,6.462,6.462,0,0,1,2.228,4.315c.091,2.34-1.378,2.089-1.378,2.089C16.3,17.4,17,16.285,17,16.285H15.973C15.467,18.443,17.9,18.34,17.9,18.34a2.872,2.872,0,0,0,2.917-3.056C21,12.6,17.784,11.13,17.784,11.13c.824-2.72-1.318-3.393-2.229-3.554l-.019-.668-.355-.369V6.531l-.007,0,0,0V6.54l-.359.369-.017.664c-.9.158-3.067.826-2.243,3.558,0,0-3.212,1.472-3.031,4.155" transform="translate(-2.051 -1.407)" fill="#c10230"/>
      <path id="패스_667" data-name="패스 667" d="M19.2,17.208l-.941-3.194a2.139,2.139,0,0,0-2.476.253,2.14,2.14,0,0,0-2.477-.253l-.942,3.194a3.116,3.116,0,0,1,3.124.183h0a.629.629,0,0,0,.585,0h0a3.111,3.111,0,0,1,3.121-.183m-3.416.02a3.832,3.832,0,0,0-3-.459l.687-2.615a2.284,2.284,0,0,1,2.317.2v0h0v0a2.28,2.28,0,0,1,2.316-.2l.69,2.615a3.832,3.832,0,0,0-3.006.459" transform="translate(-2.665 -2.959)" fill="#c10230"/>
      <path id="패스_668" data-name="패스 668" d="M14.506,16.437l-.039-.006-.017-.012-.013-.029-.038-.108-.056-.157-.408-1.2-.1.007-.04.272-.122.768c-.02.148-.038.244-.046.293a1.813,1.813,0,0,1-.031.182l-.01.037-.019.018-.066.016.007.1.158-.02.162-.006-.008-.1-.1-.014-.013-.038a1.125,1.125,0,0,1,.016-.2l.022-.143.356-.03.08.254.024.094-.009.035-.093.024.009.1.242-.026.191-.011-.006-.1Zm-.593-.483-.148.008.093-.617.2.593Z" transform="translate(-2.91 -3.217)" fill="#c10230"/>
      <path id="패스_669" data-name="패스 669" d="M15.249,15.731v.093a.52.52,0,0,1,.131.023l.019.022A.615.615,0,0,1,15.4,16v.105a1.083,1.083,0,0,1-.005.125l-.083.046-.092.018a.314.314,0,0,1-.271-.2,1.183,1.183,0,0,1-.109-.555,1.038,1.038,0,0,1,.1-.5.317.317,0,0,1,.278-.182l.134.029.1.081.039.058.005.09.005.111h.055a3.344,3.344,0,0,1,.031-.368l-.009-.021a.749.749,0,0,0-.157-.082.674.674,0,0,0-.221-.035.54.54,0,0,0-.176.029l-.153.091a.736.736,0,0,0-.134.167,1.071,1.071,0,0,0-.089.24,1.538,1.538,0,0,0-.031.322,1.451,1.451,0,0,0,.05.4.839.839,0,0,0,.089.216.636.636,0,0,0,.145.163.466.466,0,0,0,.277.092.637.637,0,0,0,.191-.034,1.436,1.436,0,0,0,.228-.115l0-.185c0-.038,0-.1,0-.195l.006-.063.053-.041v-.075l-.21,0Z" transform="translate(-3.153 -3.171)" fill="#c10230"/>
      <path id="패스_670" data-name="패스 670" d="M17.05,16.284l-.013-.011-.015-.031-.028-.106-.042-.162-.312-1.228h-.1l-.06.266-.182.758c-.034.146-.058.239-.068.288-.028.107-.042.164-.049.182l-.014.035-.02.015-.066.015v.1l.16-.007.161.007v-.1l-.1-.024-.009-.038a1.42,1.42,0,0,1,.031-.2l.033-.145h.357l.061.262.013.095-.011.034-.093.019v.1l.245-.007.192.007v-.1l-.031-.009Zm-.512-.52h-.148l.142-.61.148.61Z" transform="translate(-3.466 -3.178)" fill="#c10230"/>
      <path id="패스_671" data-name="패스 671" d="M18.392,14.9l-.084-.119-.144-.041-.311-.009-.2-.019-.009.1.078.01.021.015.011.019,0,.052c0,.023,0,.084-.006.177l-.009.221-.027.415c-.006.152-.019.295-.03.419l-.014.087-.013.013-.1.013-.006.1c.059,0,.122,0,.187,0s.149.012.269.024l0-.1-.094-.015-.023-.016-.007-.017c0-.019,0-.065,0-.132,0-.116.008-.231.017-.344l.024-.442.017-.232c0-.091.013-.162.017-.212l.087-.01.122.087a.5.5,0,0,1,.031.247.491.491,0,0,1-.057.231l-.115.075-.024-.007-.027-.013-.017.024.019.085.042.014.045.006.17-.061a.435.435,0,0,0,.122-.18.7.7,0,0,0,.05-.245.542.542,0,0,0-.022-.22" transform="translate(-3.783 -3.171)" fill="#c10230"/>
      <path id="패스_672" data-name="패스 672" d="M19.287,16.522l.011-.016c.013-.1.038-.224.071-.378l-.057-.007a1.516,1.516,0,0,1-.058.209l-.011.02-.081.013-.139-.013-.129-.027.019-.144.071-.492.111.007.121.032.024.035a.838.838,0,0,1-.013.169l.06.008.034-.255.042-.257-.057-.008a1.3,1.3,0,0,1-.03.147l-.016.023h-.045c-.065-.005-.1-.013-.115-.014l-.1-.018.035-.238c.02-.138.038-.249.06-.334l.126.009.131.033.052.027,0,.027c0,.02-.005.075-.016.166l.05.01c.02-.1.031-.156.035-.166l.035-.166,0-.017-.02-.008-.1-.02-.141-.014c-.078-.009-.148-.019-.21-.028l-.089-.013-.159-.03-.015.1.095.037.009.02a.9.9,0,0,1-.015.158c-.015.134-.029.21-.031.228l-.077.522c-.009.064-.024.16-.046.293-.013.072-.024.126-.031.158l-.078.057-.009.062c.144.018.221.027.231.027.042.005.118.021.227.039l.109.018Z" transform="translate(-4.007 -3.188)" fill="#c10230"/>
      <path id="패스_673" data-name="패스 673" d="M57.671,26.414a3.5,3.5,0,0,1-2.017-1.924A3.519,3.519,0,0,1,53.571,26.6l-.53-.789a3.089,3.089,0,0,0,2.1-2.989V21.788h.984v1.046a2.951,2.951,0,0,0,2.036,2.772ZM55.38,29.156h4.763v.828H54.4V27.174h.975Zm5.633-5.247v.838H59.8v3.058h-.975V21.236H59.8v2.673Z" transform="translate(-11.432 -4.576)" fill="#375165"/>
      <path id="패스_674" data-name="패스 674" d="M57.671,26.414a3.5,3.5,0,0,1-2.017-1.924A3.519,3.519,0,0,1,53.571,26.6l-.53-.789a3.089,3.089,0,0,0,2.1-2.989V21.788h.984v1.046a2.951,2.951,0,0,0,2.036,2.772ZM55.38,29.156h4.763v.828H54.4V27.174h.975Zm5.633-5.247v.838H59.8v3.058h-.975V21.236H59.8v2.673Z" transform="translate(-11.432 -4.576)" fill="none" stroke="#375165" stroke-width="0.111"/>
      <path id="패스_675" data-name="패스 675" d="M70.158,22.912H65.111V22.1h2.036v-.917h.975V22.1h2.036Zm-2.528,3.63c-1.231,0-2.074-.651-2.074-1.618S66.4,23.3,67.63,23.3s2.074.651,2.074,1.627-.843,1.618-2.074,1.618m-1.477.7h5.624v2.9H70.8v-2.08H66.153Zm1.477-1.48c.682,0,1.146-.315,1.146-.839s-.464-.848-1.146-.848-1.136.315-1.136.848.454.839,1.136.839m5.359-1.3H71.777v2.348H70.8V21.235h.975v2.387h1.212Z" transform="translate(-14.033 -4.566)" fill="#375165"/>
      <path id="패스_676" data-name="패스 676" d="M70.158,22.912H65.111V22.1h2.036v-.917h.975V22.1h2.036Zm-2.528,3.63c-1.231,0-2.074-.651-2.074-1.618S66.4,23.3,67.63,23.3s2.074.651,2.074,1.627S68.861,26.542,67.63,26.542Zm-1.477.7h5.624v2.9H70.8v-2.08H66.153Zm1.477-1.48c.682,0,1.146-.315,1.146-.839s-.464-.848-1.146-.848-1.136.315-1.136.848S66.948,25.763,67.63,25.763Zm5.359-1.3H71.777v2.348H70.8V21.235h.975v2.387h1.212Z" transform="translate(-14.033 -4.566)" fill="none" stroke="#375165" stroke-width="0.111"/>
      <path id="패스_677" data-name="패스 677" d="M81.816,22.862H77.072v-.809h1.922v-.918h.975v.918h1.847Zm-2.338,3.58c-1.156,0-1.961-.641-1.961-1.607s.806-1.608,1.961-1.608,1.968.642,1.968,1.608-.8,1.607-1.968,1.607m0-.759c.634,0,1.06-.326,1.06-.848s-.426-.849-1.06-.849-1.051.326-1.051.849.426.848,1.051.848m3.693,1.184h.965v3.157H78.521V26.866h.966v.809h3.684Zm0,1.578H79.487v.779h3.683Zm.965-7.231v5.3H83.16v-.72H81.854v-.828H83.16v-.917H81.873v-.828H83.16v-2Z" transform="translate(-16.611 -4.555)" fill="#375165"/>
      <path id="패스_678" data-name="패스 678" d="M81.816,22.862H77.072v-.809h1.922v-.918h.975v.918h1.847Zm-2.338,3.58c-1.156,0-1.961-.641-1.961-1.607s.806-1.608,1.961-1.608,1.968.642,1.968,1.608S80.642,26.442,79.478,26.442Zm0-.759c.634,0,1.06-.326,1.06-.848s-.426-.849-1.06-.849-1.051.326-1.051.849S78.853,25.683,79.478,25.683Zm3.693,1.184h.965v3.157H78.521V26.866h.966v.809h3.684Zm0,1.578H79.487v.779h3.683Zm.965-7.231v5.3H83.16v-.72H81.854v-.828H83.16v-.917H81.873v-.828H83.16v-2Z" transform="translate(-16.611 -4.555)" fill="none" stroke="#375165" stroke-width="0.111"/>
      <path id="패스_679" data-name="패스 679" d="M93.631,26.191a18.743,18.743,0,0,1-3.58.217h-.624V23.646h2.727V22.58H89.408v-.818h3.711v2.663H90.383v1.154a16.315,16.315,0,0,0,3.143-.207Zm-3.248.986h5.785v3h-.976v-2.17h-4.81Zm5.785-5.928v5.484h-.976V25.215H93.659V24.4h1.534V23.351H93.659v-.819h1.534V21.249Z" transform="translate(-19.27 -4.579)" fill="#375165"/>
      <path id="패스_680" data-name="패스 680" d="M93.631,26.191a18.743,18.743,0,0,1-3.58.217h-.624V23.646h2.727V22.58H89.408v-.818h3.711v2.663H90.383v1.154a16.315,16.315,0,0,0,3.143-.207Zm-3.248.986h5.785v3h-.976v-2.17h-4.81Zm5.785-5.928v5.484h-.976V25.215H93.659V24.4h1.534V23.351H93.659v-.819h1.534V21.249Z" transform="translate(-19.27 -4.579)" fill="none" stroke="#375165" stroke-width="0.111"/>
      <path id="패스_681" data-name="패스 681" d="M106.032,25.863a17.074,17.074,0,0,1-3.949.305h-.69V21.977H105.2V22.8h-2.83V25.33a16.093,16.093,0,0,0,3.569-.286Zm-2.746,3.294h4.772v.828H102.3V27.036h.985Zm5.643-5.366v.838h-1.212v3.059h-.975V21.236h.975v2.555Z" transform="translate(-21.853 -4.576)" fill="#375165"/>
      <path id="패스_682" data-name="패스 682" d="M106.032,25.863a17.074,17.074,0,0,1-3.949.305h-.69V21.977H105.2V22.8h-2.83V25.33a16.093,16.093,0,0,0,3.569-.286Zm-2.746,3.294h4.772v.828H102.3V27.036h.985Zm5.643-5.366v.838h-1.212v3.059h-.975V21.236h.975v2.555Z" transform="translate(-21.853 -4.576)" fill="none" stroke="#375165" stroke-width="0.111"/>
    </g>
  </g>
</svg>
