<svg xmlns="http://www.w3.org/2000/svg" xmlns:xlink="http://www.w3.org/1999/xlink" width="58.833" height="27.27" viewBox="0 0 58.833 27.27">
  <defs>
    <clipPath id="clip-path">
      <rect id="사각형_869" data-name="사각형 869" width="58.833" height="27.27" fill="none"/>
    </clipPath>
  </defs>
  <g id="TOSC로고" transform="translate(0 0)">
    <g id="그룹_423" data-name="그룹 423" transform="translate(0 0)" clip-path="url(#clip-path)">
      <path id="패스_459" data-name="패스 459" d="M65.034,11.727A9.326,9.326,0,1,1,55.708,2.4a9.326,9.326,0,0,1,9.326,9.326" transform="translate(-33.687 -1.744)" fill="#653ddc"/>
      <text id="TEST_OF_SOFTWARE_CODING" data-name="TEST OF SOFTWARE CODING" transform="translate(2.481 26.071)" fill="#595757" font-size="3" font-family="Gotham-Bold, Gotham" font-weight="700"><tspan x="0" y="0">TE</tspan><tspan y="0" letter-spacing="-0.014em">S</tspan><tspan y="0">T OF SOFT</tspan><tspan y="0" letter-spacing="-0.09em">W</tspan><tspan y="0">ARE </tspan><tspan y="0" letter-spacing="-0.019em">C</tspan><tspan y="0">ODING</tspan></text>
      <path id="패스_460" data-name="패스 460" d="M73.286,24.969a4.336,4.336,0,1,1-4.336-4.336,4.336,4.336,0,0,1,4.336,4.336" transform="translate(-46.929 -14.986)" fill="#f5f5f5"/>
      <path id="패스_461" data-name="패스 461" d="M183.475,15.493a4.818,4.818,0,1,1,1.392-9.432V.826a9.947,9.947,0,1,0-1.392,19.8,10.022,10.022,0,0,0,1.392-.1V15.288a4.819,4.819,0,0,1-1.392.2" transform="translate(-126.033 -0.528)" fill="#653ddc"/>
      <rect id="사각형_865" data-name="사각형 865" width="5.236" height="18.276" transform="translate(4.54 1.294)" fill="#653ddc"/>
      <rect id="사각형_866" data-name="사각형 866" width="5.88" height="5.596" transform="translate(12.573 1.339)" fill="#f5f5f5"/>
      <rect id="사각형_867" data-name="사각형 867" width="5.197" height="5.649" transform="translate(9.789 1.286)" fill="#fa0e28"/>
      <rect id="사각형_868" data-name="사각형 868" width="9.317" height="5.511" transform="translate(0 1.294)" fill="#653ddc"/>
      <path id="패스_462" data-name="패스 462" d="M131.385,12.479a5.282,5.282,0,0,0-2.525-2.662c-1.072-.564-2.208-1.006-3.309-1.515a16.17,16.17,0,0,1-1.9-.946,1.219,1.219,0,0,1,.183-2.217,3.484,3.484,0,0,1,1.312-.275A6.758,6.758,0,0,1,129.1,6.336c.089.064.179.125.286.2.073-.133.132-.239.189-.347q.587-1.13,1.171-2.261l.68-1.3-.3-.2a5.032,5.032,0,0,0-.42-.311q-.183-.128-.371-.245c-.07-.044-.142-.082-.213-.124l-.046-.031,0,0A9.462,9.462,0,0,0,126.364.541,8.6,8.6,0,0,0,121.3,1.4a5.426,5.426,0,0,0-.432,9.5c1.012.623,2.124,1.081,3.192,1.612.792.393,1.621.722,2.369,1.184a1.25,1.25,0,0,1-.221,2.233,3.258,3.258,0,0,1-1.725.216,7.5,7.5,0,0,1-3.442-1.435c-.234-.165-.46-.341-.708-.526-.076.106-.143.2-.206.288-.7,1.008-1.387,2.022-2.1,3.02-.161.226-.1.347.106.527.076.066.1.131.18.194a10.118,10.118,0,0,0,5.616,2.285,8.421,8.421,0,0,0,4.5-.683,5.763,5.763,0,0,0,2.963-7.333" transform="translate(-85.654 -0.344)" fill="#653ddc"/>
      <path id="패스_463" data-name="패스 463" d="M131.385,12.479a5.282,5.282,0,0,0-2.525-2.662c-1.072-.564-2.208-1.006-3.309-1.515a16.17,16.17,0,0,1-1.9-.946,1.219,1.219,0,0,1,.183-2.217,3.484,3.484,0,0,1,1.312-.275A6.758,6.758,0,0,1,129.1,6.336c.089.064.179.125.286.2.073-.133.132-.239.189-.347q.587-1.13,1.171-2.261l.68-1.3-.3-.2a5.032,5.032,0,0,0-.42-.311q-.183-.128-.371-.245c-.07-.044-.142-.082-.213-.124l-.046-.031,0,0A9.462,9.462,0,0,0,126.364.541,8.6,8.6,0,0,0,121.3,1.4a5.426,5.426,0,0,0-.432,9.5c1.012.623,2.124,1.081,3.192,1.612.792.393,1.621.722,2.369,1.184a1.25,1.25,0,0,1-.221,2.233,3.258,3.258,0,0,1-1.725.216,7.5,7.5,0,0,1-3.442-1.435c-.234-.165-.46-.341-.708-.526-.076.106-.143.2-.206.288-.7,1.008-1.387,2.022-2.1,3.02-.161.226-.1.347.106.527.076.066.1.131.18.194a10.118,10.118,0,0,0,5.616,2.285,8.421,8.421,0,0,0,4.5-.683A5.763,5.763,0,0,0,131.385,12.479Z" transform="translate(-85.654 -0.344)" fill="none" stroke="#653ddc" stroke-width="0.946"/>
    </g>
  </g>
</svg>
